<?xml version="1.0" encoding="UTF-8"?>
<svg width="1018px" height="296px" viewBox="0 0 1018 296" version="1.1" xmlns="http://www.w3.org/2000/svg" xmlns:xlink="http://www.w3.org/1999/xlink">
    <!-- Generator: Sketch 46.2 (44496) - http://www.bohemiancoding.com/sketch -->
    <title>Untitled 6</title>
    <desc>Created with Sketch.</desc>
    <defs></defs>
    <g id="Page-1" stroke="none" stroke-width="1" fill="none" fill-rule="evenodd">
        <path d="M1,295.184307 C46.5647062,211.893411 181.524227,149.89901 341.969878,147.098421 C510.159976,144.162652 652.631356,207.210748 694.28849,295.184307 L0.999994855,295.184307 Z" id="Combined-Shape" fill="#85CA28"></path>
        <polygon id="Triangle" fill="#8B572A" points="261 151 269 170 253 170"></polygon>
        <path d="M323.93682,295.184307 C367.148211,152.412401 502.44609,46.9285031 664.473131,44.1003105 C831.068874,41.192371 973.211565,147.731026 1017.42136,295.184307 L323.936815,295.184307 Z" id="Combined-Shape" fill="#85CA28"></path>
        <g id="Tree" transform="translate(229.000000, 63.000000)">
            <rect id="Rectangle-2" fill="#8B572A" x="25" y="55" width="12" height="52"></rect>
            <rect id="Rectangle-2" fill="#8B572A" transform="translate(23.569089, 61.926034) rotate(-33.000000) translate(-23.569089, -61.926034) " x="21.1466592" y="48.0866502" width="4.84486035" height="27.6787669"></rect>
            <rect id="Rectangle-2" fill="#8B572A" transform="translate(41.237507, 58.097768) rotate(216.000000) translate(-41.237507, -58.097768) " x="39.5944509" y="48.0460587" width="3.28611313" height="20.1034195"></rect>
            <circle id="Oval-2" fill="#417505" cx="25.5" cy="47.5" r="10.5"></circle>
            <circle id="Oval-2" fill="#417505" cx="36.5" cy="48.5" r="10.5"></circle>
            <circle id="Oval-2" fill="#417505" cx="36.5" cy="36.5" r="10.5"></circle>
            <circle id="Oval-2" fill="#417505" cx="46.5" cy="41.5" r="10.5"></circle>
            <circle id="Oval-2" fill="#417505" cx="25.5" cy="31.5" r="10.5"></circle>
            <circle id="Oval-2" fill="#417505" cx="15.5" cy="37.5" r="10.5"></circle>
            <circle id="Oval-2" fill="#417505" cx="14.5" cy="25.5" r="10.5"></circle>
            <circle id="Oval-2" fill="#417505" cx="31.5" cy="20.5" r="10.5"></circle>
            <circle id="Oval-2" fill="#417505" cx="42.5" cy="25.5" r="10.5"></circle>
            <circle id="Oval-2" fill="#417505" cx="49.5" cy="28.5" r="10.5"></circle>
            <circle id="Oval-2" fill="#417505" cx="43.5" cy="17.5" r="10.5"></circle>
            <circle id="Oval-2" fill="#417505" cx="22.5" cy="15.5" r="10.5"></circle>
            <circle id="Oval-2" fill="#417505" cx="33.5" cy="10.5" r="10.5"></circle>
            <circle id="Oval-2" fill="#417505" cx="15.5" cy="44.5" r="10.5"></circle>
            <circle id="Oval-2" fill="#417505" cx="10.5" cy="34.5" r="10.5"></circle>
        </g>
        <g id="Tree" transform="translate(784.000000, 0.000000)">
            <rect id="Rectangle-2" fill="#8B572A" x="25" y="55" width="12" height="52"></rect>
            <rect id="Rectangle-2" fill="#8B572A" transform="translate(23.569089, 61.926034) rotate(-33.000000) translate(-23.569089, -61.926034) " x="21.1466592" y="48.0866502" width="4.84486035" height="27.6787669"></rect>
            <rect id="Rectangle-2" fill="#8B572A" transform="translate(41.237507, 58.097768) rotate(216.000000) translate(-41.237507, -58.097768) " x="39.5944509" y="48.0460587" width="3.28611313" height="20.1034195"></rect>
            <circle id="Oval-2" fill="#417505" cx="25.5" cy="47.5" r="10.5"></circle>
            <circle id="Oval-2" fill="#417505" cx="36.5" cy="48.5" r="10.5"></circle>
            <circle id="Oval-2" fill="#417505" cx="36.5" cy="36.5" r="10.5"></circle>
            <circle id="Oval-2" fill="#417505" cx="46.5" cy="41.5" r="10.5"></circle>
            <circle id="Oval-2" fill="#417505" cx="25.5" cy="31.5" r="10.5"></circle>
            <circle id="Oval-2" fill="#417505" cx="15.5" cy="37.5" r="10.5"></circle>
            <circle id="Oval-2" fill="#417505" cx="14.5" cy="25.5" r="10.5"></circle>
            <circle id="Oval-2" fill="#417505" cx="31.5" cy="20.5" r="10.5"></circle>
            <circle id="Oval-2" fill="#417505" cx="42.5" cy="25.5" r="10.5"></circle>
            <circle id="Oval-2" fill="#417505" cx="49.5" cy="28.5" r="10.5"></circle>
            <circle id="Oval-2" fill="#417505" cx="43.5" cy="17.5" r="10.5"></circle>
            <circle id="Oval-2" fill="#417505" cx="22.5" cy="15.5" r="10.5"></circle>
            <circle id="Oval-2" fill="#417505" cx="33.5" cy="10.5" r="10.5"></circle>
            <circle id="Oval-2" fill="#417505" cx="15.5" cy="44.5" r="10.5"></circle>
            <circle id="Oval-2" fill="#417505" cx="10.5" cy="34.5" r="10.5"></circle>
        </g>
        <g id="Tree" transform="translate(59.000000, 123.000000)">
            <rect id="Rectangle-2" fill="#8B572A" x="25" y="55" width="12" height="52"></rect>
            <rect id="Rectangle-2" fill="#8B572A" transform="translate(23.569089, 61.926034) rotate(-33.000000) translate(-23.569089, -61.926034) " x="21.1466592" y="48.0866502" width="4.84486035" height="27.6787669"></rect>
            <rect id="Rectangle-2" fill="#8B572A" transform="translate(41.237507, 58.097768) rotate(216.000000) translate(-41.237507, -58.097768) " x="39.5944509" y="48.0460587" width="3.28611313" height="20.1034195"></rect>
            <circle id="Oval-2" fill="#417505" cx="25.5" cy="47.5" r="10.5"></circle>
            <circle id="Oval-2" fill="#417505" cx="36.5" cy="48.5" r="10.5"></circle>
            <circle id="Oval-2" fill="#417505" cx="36.5" cy="36.5" r="10.5"></circle>
            <circle id="Oval-2" fill="#417505" cx="46.5" cy="41.5" r="10.5"></circle>
            <circle id="Oval-2" fill="#417505" cx="25.5" cy="31.5" r="10.5"></circle>
            <circle id="Oval-2" fill="#417505" cx="15.5" cy="37.5" r="10.5"></circle>
            <circle id="Oval-2" fill="#417505" cx="14.5" cy="25.5" r="10.5"></circle>
            <circle id="Oval-2" fill="#417505" cx="31.5" cy="20.5" r="10.5"></circle>
            <circle id="Oval-2" fill="#417505" cx="42.5" cy="25.5" r="10.5"></circle>
            <circle id="Oval-2" fill="#417505" cx="49.5" cy="28.5" r="10.5"></circle>
            <circle id="Oval-2" fill="#417505" cx="43.5" cy="17.5" r="10.5"></circle>
            <circle id="Oval-2" fill="#417505" cx="22.5" cy="15.5" r="10.5"></circle>
            <circle id="Oval-2" fill="#417505" cx="33.5" cy="10.5" r="10.5"></circle>
            <circle id="Oval-2" fill="#417505" cx="15.5" cy="44.5" r="10.5"></circle>
            <circle id="Oval-2" fill="#417505" cx="10.5" cy="34.5" r="10.5"></circle>
        </g>
        <g id="Tree" transform="translate(776.000000, 39.000000)">
            <rect id="Rectangle-2" fill="#8B572A" x="16" y="35" width="8" height="33"></rect>
            <rect id="Rectangle-2" fill="#8B572A" transform="translate(14.500000, 40.000000) rotate(-33.000000) translate(-14.500000, -40.000000) " x="13" y="31" width="3" height="18"></rect>
            <rect id="Rectangle-2" fill="#8B572A" transform="translate(26.000000, 37.500000) rotate(216.000000) translate(-26.000000, -37.500000) " x="25" y="31" width="2" height="13"></rect>
            <circle id="Oval-2" fill="#417505" cx="15.5" cy="30.5" r="6.5"></circle>
            <circle id="Oval-2" fill="#417505" cx="22.5" cy="30.5" r="6.5"></circle>
            <circle id="Oval-2" fill="#417505" cx="22.5" cy="23.5" r="6.5"></circle>
            <circle id="Oval-2" fill="#417505" cx="29.5" cy="26.5" r="6.5"></circle>
            <circle id="Oval-2" fill="#417505" cx="15.5" cy="19.5" r="6.5"></circle>
            <circle id="Oval-2" fill="#417505" cx="9.5" cy="23.5" r="6.5"></circle>
            <circle id="Oval-2" fill="#417505" cx="9.5" cy="16.5" r="6.5"></circle>
            <circle id="Oval-2" fill="#417505" cx="19.5" cy="12.5" r="6.5"></circle>
            <circle id="Oval-2" fill="#417505" cx="26.5" cy="16.5" r="6.5"></circle>
            <circle id="Oval-2" fill="#417505" cx="31.5" cy="17.5" r="6.5"></circle>
            <circle id="Oval-2" fill="#417505" cx="27.5" cy="10.5" r="6.5"></circle>
            <circle id="Oval-2" fill="#417505" cx="14.5" cy="9.5" r="6.5"></circle>
            <circle id="Oval-2" fill="#417505" cx="21.5" cy="6.5" r="6.5"></circle>
            <circle id="Oval-2" fill="#417505" cx="9.5" cy="28.5" r="6.5"></circle>
            <circle id="Oval-2" fill="#417505" cx="6.5" cy="21.5" r="6.5"></circle>
        </g>
    </g>
</svg>